<mxfile host="drawio-plugin" modified="2024-12-05T15:37:38.441Z" agent="Mozilla/5.0 (Windows NT 10.0; Win64; x64) AppleWebKit/537.36 (KHTML, like Gecko) Chrome/122.0.0.0 Safari/537.36" etag="zmrY9ubacS5bkBnovLqz" version="22.1.22" type="embed">
  <diagram id="q7IJ1WzYPQtgSvJncl4a" name="Page-1">
    <mxGraphModel dx="229" dy="1493" grid="1" gridSize="10" guides="1" tooltips="1" connect="1" arrows="1" fold="1" page="1" pageScale="1" pageWidth="850" pageHeight="1100" math="0" shadow="0">
      <root>
        <mxCell id="0" />
        <mxCell id="1" parent="0" />
        <mxCell id="6" value="" style="edgeStyle=orthogonalEdgeStyle;rounded=0;orthogonalLoop=1;jettySize=auto;html=1;" parent="1" source="4" target="5" edge="1">
          <mxGeometry relative="1" as="geometry" />
        </mxCell>
        <mxCell id="14" value="" style="edgeStyle=orthogonalEdgeStyle;rounded=0;orthogonalLoop=1;jettySize=auto;html=1;exitX=0.5;exitY=1;exitDx=0;exitDy=0;entryX=0.5;entryY=0;entryDx=0;entryDy=0;" parent="1" source="13" target="4" edge="1">
          <mxGeometry relative="1" as="geometry">
            <mxPoint x="270" y="-50" as="targetPoint" />
          </mxGeometry>
        </mxCell>
        <mxCell id="4" value="input function, range, step size" style="whiteSpace=wrap;html=1;" parent="1" vertex="1">
          <mxGeometry x="150" y="30" width="90" height="50" as="geometry" />
        </mxCell>
        <mxCell id="8" value="" style="edgeStyle=orthogonalEdgeStyle;rounded=0;orthogonalLoop=1;jettySize=auto;html=1;" parent="1" source="5" target="7" edge="1">
          <mxGeometry relative="1" as="geometry" />
        </mxCell>
        <mxCell id="5" value="loop through function with alphabet and add any new letters to an array" style="rounded=1;whiteSpace=wrap;html=1;" parent="1" vertex="1">
          <mxGeometry x="135" y="100" width="120" height="60" as="geometry" />
        </mxCell>
        <mxCell id="10" value="" style="edgeStyle=orthogonalEdgeStyle;rounded=0;orthogonalLoop=1;jettySize=auto;html=1;" parent="1" source="7" target="9" edge="1">
          <mxGeometry relative="1" as="geometry" />
        </mxCell>
        <mxCell id="7" value="loop to sub in each value, add to arrays" style="whiteSpace=wrap;html=1;rounded=1;" parent="1" vertex="1">
          <mxGeometry x="135" y="180" width="120" height="60" as="geometry" />
        </mxCell>
        <mxCell id="12" value="" style="edgeStyle=orthogonalEdgeStyle;rounded=0;orthogonalLoop=1;jettySize=auto;html=1;" parent="1" source="9" target="11" edge="1">
          <mxGeometry relative="1" as="geometry" />
        </mxCell>
        <mxCell id="9" value="print answer" style="whiteSpace=wrap;html=1;rounded=1;" parent="1" vertex="1">
          <mxGeometry x="135" y="260" width="120" height="60" as="geometry" />
        </mxCell>
        <mxCell id="11" value="" style="ellipse;whiteSpace=wrap;html=1;rounded=1;" parent="1" vertex="1">
          <mxGeometry x="182.5" y="340" width="25" height="20" as="geometry" />
        </mxCell>
        <mxCell id="13" value="" style="ellipse;whiteSpace=wrap;html=1;" parent="1" vertex="1">
          <mxGeometry x="182.5" y="-20" width="25" height="25" as="geometry" />
        </mxCell>
      </root>
    </mxGraphModel>
  </diagram>
</mxfile>
